<?xml version="1.0" standalone="no"?>
<!DOCTYPE svg PUBLIC "-//W3C//DTD SVG 20010904//EN"
 "http://www.w3.org/TR/2001/REC-SVG-20010904/DTD/svg10.dtd">
<svg version="1.0" xmlns="http://www.w3.org/2000/svg"
 width="297.000000pt" height="122.000000pt" viewBox="0 0 297.000000 122.000000"
 preserveAspectRatio="xMidYMid meet">

<g transform="translate(0.000000,122.000000) scale(0.100000,-0.100000)"
fill="#000000" stroke="none">
<path d="M881 1117 c-17 -21 -3 -49 23 -45 15 2 21 10 21 28 0 28 -26 38 -44
17z"/>
<path d="M240 960 c0 -136 2 -160 15 -160 12 0 15 14 15 70 l0 70 63 0 c50 0
68 4 85 20 40 38 41 101 2 140 -17 17 -34 20 -100 20 l-80 0 0 -160z m158 118
c16 -16 16 -80 0 -96 -7 -7 -38 -12 -70 -12 l-58 0 0 60 0 60 58 0 c32 0 63
-5 70 -12z"/>
<path d="M520 960 c0 -136 2 -160 15 -160 12 0 15 15 15 74 0 94 22 129 78
124 48 -4 62 -32 62 -125 0 -60 3 -73 16 -73 14 0 15 13 12 96 -3 86 -5 98
-27 115 -31 25 -85 25 -111 -1 -11 -11 -22 -20 -25 -20 -3 0 -5 29 -5 65 0 51
-3 65 -15 65 -13 0 -15 -24 -15 -160z"/>
<path d="M1370 960 c0 -136 2 -160 15 -160 12 0 15 16 15 80 0 91 17 120 68
120 49 0 62 -26 62 -118 0 -66 3 -82 15 -82 12 0 15 17 15 93 0 85 -2 96 -23
115 -14 14 -36 22 -57 22 -21 0 -43 -8 -57 -22 l-23 -21 0 66 c0 53 -3 67 -15
67 -13 0 -15 -24 -15 -160z"/>
<path d="M1640 1105 c0 -11 12 -15 45 -15 l45 0 0 -145 c0 -131 2 -145 18
-145 16 0 17 12 14 145 l-3 145 50 0 c39 0 51 4 51 15 0 12 -19 15 -110 15
-91 0 -110 -3 -110 -15z"/>
<path d="M820 1015 c0 -10 11 -15 35 -15 l35 0 0 -85 0 -85 -40 0 c-29 0 -40
-4 -40 -15 0 -12 17 -15 90 -15 73 0 90 3 90 15 0 10 -11 15 -35 15 l-35 0 0
100 0 100 -50 0 c-38 0 -50 -4 -50 -15z"/>
<path d="M1122 1014 c-18 -12 -22 -24 -20 -52 3 -39 6 -41 93 -59 32 -6 41
-13 43 -32 4 -28 -12 -41 -51 -41 -36 0 -67 16 -67 35 0 8 -7 15 -15 15 -24 0
-17 -37 11 -59 32 -25 100 -28 132 -5 15 10 22 25 22 48 0 40 -16 55 -67 63
-55 8 -75 21 -71 46 4 32 70 37 95 8 19 -22 43 -28 43 -11 0 6 -11 22 -25 35
-29 30 -88 34 -123 9z"/>
<path d="M1920 1016 c0 -8 10 -16 23 -18 21 -3 22 -8 22 -83 0 -80 0 -80 -27
-83 -16 -2 -28 -9 -28 -18 0 -11 16 -14 70 -14 56 0 70 3 70 15 0 9 -9 15 -25
15 -24 0 -25 2 -25 66 0 36 5 74 10 85 20 36 87 18 101 -28 3 -8 9 -9 18 -4
15 10 8 43 -15 66 -20 20 -73 19 -96 -2 -17 -15 -18 -15 -18 0 0 13 -9 17 -40
17 -28 0 -40 -4 -40 -14z"/>
<path d="M2237 1010 c-34 -27 -50 -83 -37 -132 20 -71 98 -101 154 -57 21 16
26 17 26 5 0 -15 37 -32 48 -21 3 3 1 15 -6 25 -7 12 -12 57 -12 110 0 73 -3
90 -15 90 -9 0 -15 -9 -15 -22 l0 -21 -23 21 c-30 28 -85 29 -120 2z m122 -36
c45 -57 12 -144 -55 -144 -49 0 -74 29 -74 85 0 56 25 85 74 85 25 0 40 -7 55
-26z"/>
<path d="M2490 870 c0 -136 2 -160 15 -160 12 0 15 14 15 65 l0 66 22 -21 c24
-22 73 -26 112 -9 63 29 72 145 15 194 -38 32 -96 34 -127 5 l-22 -21 0 21 c0
11 -7 20 -15 20 -13 0 -15 -24 -15 -160z m160 110 c14 -14 20 -33 20 -65 0
-55 -25 -85 -72 -85 -71 0 -106 93 -56 147 27 29 80 31 108 3z"/>
<path d="M1344 542 c-56 -31 -109 -63 -118 -71 -13 -11 -16 -34 -16 -127 0
-69 4 -114 10 -114 6 0 10 11 10 24 0 34 40 88 83 111 26 14 37 27 37 43 0 20
4 22 23 17 35 -11 42 -22 29 -50 -15 -32 -15 -70 -2 -96 9 -17 7 -19 -19 -19
-64 0 -101 -72 -61 -123 13 -17 31 -27 48 -28 26 0 26 -1 5 -9 -13 -5 -23 -12
-23 -14 0 -11 92 -58 113 -58 24 0 199 94 235 125 21 19 22 28 22 157 0 94 -4
141 -12 152 -20 25 -220 138 -242 137 -12 0 -67 -26 -122 -57z m224 -18 c142
-83 132 -67 132 -209 0 -82 -4 -126 -12 -137 -16 -20 -209 -128 -229 -128 -21
0 -60 30 -54 40 3 5 19 7 34 4 30 -6 71 9 71 27 0 5 -13 18 -29 27 -17 9 -35
27 -40 39 -6 13 -17 23 -25 23 -20 0 -39 -36 -31 -60 8 -25 -16 -27 -39 -4
-41 40 -3 94 66 94 68 0 138 42 138 83 0 23 -55 77 -79 77 -9 0 -32 11 -51 25
-19 14 -47 25 -62 25 -23 0 -28 -4 -28 -25 0 -17 -9 -29 -31 -40 -16 -9 -39
-25 -50 -36 -19 -19 -19 -19 -19 34 0 28 4 58 8 64 6 10 218 132 230 133 2 0
47 -25 100 -56z m-66 -173 l32 -28 -27 -27 c-26 -26 -70 -35 -82 -15 -4 6 -7
25 -7 44 0 19 3 38 7 44 11 19 44 12 77 -18z m-80 -203 c-9 -9 -12 -7 -12 12
0 19 3 21 12 12 9 -9 9 -15 0 -24z m43 -28 c-3 -5 -12 -7 -20 -3 -21 7 -19 13
6 13 11 0 18 -4 14 -10z"/>
<path d="M1455 330 c3 -5 8 -10 11 -10 2 0 4 5 4 10 0 6 -5 10 -11 10 -5 0 -7
-4 -4 -10z"/>
</g>
</svg>
