<?xml version="1.0" standalone="no"?>
<!DOCTYPE svg PUBLIC "-//W3C//DTD SVG 20010904//EN"
 "http://www.w3.org/TR/2001/REC-SVG-20010904/DTD/svg10.dtd">
<svg version="1.0" xmlns="http://www.w3.org/2000/svg"
 width="192.000000pt" height="192.000000pt" viewBox="0 0 192.000000 192.000000"
 preserveAspectRatio="xMidYMid meet">

<g transform="translate(0.000000,192.000000) scale(0.100000,-0.100000)"
fill="#000000" stroke="none">
<path d="M951 1739 c-53 -21 -512 -323 -531 -348 -33 -48 -40 -108 -40 -382 0
-214 3 -268 13 -272 25 -9 34 7 45 82 21 145 106 262 227 312 l55 23 0 63 c0
53 3 63 18 63 29 -1 98 -37 115 -60 14 -20 13 -26 -11 -78 -23 -48 -27 -71
-27 -147 1 -66 5 -99 18 -122 9 -18 17 -34 17 -36 0 -3 -27 -7 -60 -9 -66 -5
-95 -21 -144 -82 -59 -72 -45 -231 24 -290 36 -30 93 -50 126 -43 36 7 29 -2
-21 -23 -69 -30 -62 -47 53 -127 88 -62 101 -68 147 -68 47 0 62 8 290 154
132 85 248 162 259 170 10 9 27 33 38 54 17 35 20 68 25 385 l5 347 -24 44
c-20 38 -59 69 -273 217 -279 194 -285 197 -344 173z m263 -191 c273 -188 296
-206 311 -242 10 -24 12 -99 7 -358 -7 -311 -8 -328 -28 -355 -12 -15 -128
-97 -258 -180 -193 -124 -244 -153 -273 -153 -32 0 -57 14 -142 77 -2 1 8 15
24 29 24 22 32 24 52 15 77 -35 205 29 174 88 -12 22 -98 81 -118 81 -7 0 -13
8 -13 17 0 23 -36 94 -60 121 -26 27 -41 21 -70 -30 -24 -43 -32 -114 -17
-155 8 -21 5 -23 -26 -23 -61 0 -117 66 -117 137 1 41 34 109 64 128 18 12 60
20 133 25 174 13 256 57 313 167 21 41 21 44 5 92 -30 90 -121 169 -218 188
-20 4 -45 21 -66 45 -41 48 -92 75 -159 84 -44 6 -51 4 -61 -14 -6 -11 -11
-46 -11 -76 0 -55 0 -56 -42 -77 -63 -32 -96 -59 -140 -114 l-39 -49 3 157 c3
153 4 157 29 182 49 50 492 325 523 325 20 0 82 -37 220 -132z m-207 -415 c50
-23 99 -75 113 -118 11 -35 10 -40 -16 -78 -31 -44 -95 -82 -155 -92 -34 -6
-37 -5 -55 32 -27 53 -26 192 0 246 17 35 22 38 48 33 16 -3 46 -13 65 -23z
m-117 -559 c9 -26 9 -38 0 -49 -13 -15 -5 -55 11 -55 6 0 19 5 30 10 14 8 27
7 49 -5 37 -19 38 -33 5 -41 -73 -18 -152 78 -131 161 8 32 21 25 36 -21z"/>
<path d="M972 1041 c-19 -11 -11 -45 11 -49 9 -2 20 4 23 13 9 21 -16 47 -34
36z"/>
</g>
</svg>
